<svg width="205" height="79" viewBox="0 0 205 79" fill="none" xmlns="http://www.w3.org/2000/svg">
<path d="M1.5 56.9997V7.5614C1.5 6.14678 2.64678 5 4.06141 5H49.9386C51.3532 5 52.5 6.14678 52.5 7.5614V56.91C52.5 58.888 51.5252 60.7389 49.8941 61.8578L29.8429 75.6125C27.755 77.0448 24.9928 77.0123 22.9393 75.5313L3.99046 61.8662C2.42659 60.7384 1.5 58.9278 1.5 56.9997Z" stroke="#BAB195" stroke-width="3"/>
<path d="M9.5 21V14.6364V14H44.5V18.4545L20.7 49H44.5V56H9.5V51.5455L33.3 21H9.5Z" fill="#E8D18D"/>
<path d="M78.2809 28.3C76.4209 28.3 74.1209 28.12 71.3809 27.76V24.19C74.7809 24.71 77.1009 24.97 78.3409 24.97C80.9409 24.97 82.2409 24.3 82.2409 22.96V21.7C82.2409 21.06 82.0509 20.57 81.6709 20.23C81.3109 19.89 80.6509 19.72 79.6909 19.72H77.4109C73.1309 19.72 70.9909 18.02 70.9909 14.62V13.18C70.9909 11.48 71.7009 10.23 73.1209 9.43C74.5409 8.63 76.7909 8.23 79.8709 8.23C81.4709 8.23 83.5009 8.36 85.9609 8.62V12.1C82.9409 11.74 80.8609 11.56 79.7209 11.56C78.1409 11.56 77.0809 11.69 76.5409 11.95C75.9609 12.23 75.6709 12.67 75.6709 13.27V14.65C75.6709 15.67 76.5309 16.18 78.2509 16.18H80.5909C82.8109 16.18 84.4209 16.59 85.4209 17.41C86.4209 18.23 86.9209 19.48 86.9209 21.16V22.45C86.9209 24.77 86.0909 26.34 84.4309 27.16C83.6309 27.58 82.7409 27.87 81.7609 28.03C80.8009 28.21 79.6409 28.3 78.2809 28.3ZM94.1042 28.3C92.7442 28.3 91.7242 28.18 91.0442 27.94C90.3842 27.68 89.9142 27.23 89.6342 26.59C89.3742 25.93 89.2442 24.95 89.2442 23.65C89.2442 22.49 89.3842 21.58 89.6642 20.92C89.9642 20.26 90.4342 19.79 91.0742 19.51C91.7342 19.21 92.6342 19.06 93.7742 19.06H98.6942V18.07C98.6942 17.45 98.6042 16.99 98.4242 16.69C98.2642 16.39 97.9542 16.18 97.4942 16.06C97.0542 15.94 96.3842 15.88 95.4842 15.88C94.2442 15.88 92.5442 16 90.3842 16.24V13.48C91.9642 13.28 93.8142 13.18 95.9342 13.18C97.7942 13.18 99.2242 13.32 100.224 13.6C101.244 13.88 101.974 14.36 102.414 15.04C102.854 15.72 103.074 16.71 103.074 18.01V28H98.7842V26.68C98.4442 27.26 97.9842 27.67 97.4042 27.91C96.8242 28.17 95.7242 28.3 94.1042 28.3ZM95.8142 25.57C96.6942 25.57 97.3242 25.54 97.7042 25.48C97.9842 25.44 98.1742 25.38 98.2742 25.3C98.3942 25.22 98.4942 25.09 98.5742 24.91C98.6542 24.77 98.6942 24.56 98.6942 24.28V21.46H95.6942C95.0142 21.46 94.5342 21.51 94.2542 21.61C93.9742 21.69 93.7842 21.87 93.6842 22.15C93.5842 22.41 93.5342 22.88 93.5342 23.56C93.5342 24.22 93.5842 24.68 93.6842 24.94C93.7842 25.2 93.9742 25.37 94.2542 25.45C94.5542 25.53 95.0742 25.57 95.8142 25.57ZM108.038 16.18H105.308V13.48H108.038V11.29C108.038 10.11 108.228 9.19 108.608 8.53C109.008 7.85 109.608 7.38 110.408 7.12C111.228 6.84 112.318 6.7 113.678 6.7C114.418 6.7 115.508 6.78 116.948 6.94V9.64C115.668 9.48 114.808 9.4 114.368 9.4C113.628 9.4 113.118 9.52 112.838 9.76C112.558 9.98 112.418 10.41 112.418 11.05V13.48H116.408V16.18H112.418V28H108.038V16.18ZM125.849 28.3C120.709 28.3 118.139 26.73 118.139 23.59V18.37C118.139 16.55 118.719 15.23 119.879 14.41C121.059 13.59 122.869 13.18 125.309 13.18C127.609 13.18 129.289 13.58 130.349 14.38C131.429 15.16 131.969 16.49 131.969 18.37V21.91H122.549V23.23C122.549 24.07 122.849 24.67 123.449 25.03C124.049 25.39 125.129 25.57 126.689 25.57C128.129 25.57 129.749 25.36 131.549 24.94V27.73C129.769 28.11 127.869 28.3 125.849 28.3ZM127.799 19.42V17.32C127.799 16.84 127.599 16.48 127.199 16.24C126.819 16 126.169 15.88 125.249 15.88C124.189 15.88 123.479 16 123.119 16.24C122.739 16.5 122.549 16.86 122.549 17.32V19.42H127.799ZM134.596 25.15L144.736 11.86H134.896V8.53H150.496V11.35L140.356 24.64H150.676V28H134.596V25.15ZM160.646 28.3C159.746 28.3 159.006 28.27 158.426 28.21C157.846 28.15 157.226 28.03 156.566 27.85C155.846 27.65 155.266 27.37 154.826 27.01C154.386 26.63 154.016 26.1 153.716 25.42C153.416 24.76 153.266 23.96 153.266 23.02V18.73C153.266 17.77 153.416 16.93 153.716 16.21C154.016 15.49 154.406 14.93 154.886 14.53C155.306 14.19 155.856 13.91 156.536 13.69C157.236 13.45 157.916 13.3 158.576 13.24C159.336 13.2 160.026 13.18 160.646 13.18C161.566 13.18 162.296 13.21 162.836 13.27C163.396 13.31 164.006 13.43 164.666 13.63C165.386 13.85 165.966 14.15 166.406 14.53C166.866 14.91 167.256 15.45 167.576 16.15C167.876 16.87 168.026 17.73 168.026 18.73V23.02C168.026 23.92 167.876 24.71 167.576 25.39C167.296 26.07 166.926 26.6 166.466 26.98C166.066 27.32 165.516 27.6 164.816 27.82C164.136 28.02 163.466 28.15 162.806 28.21C162.206 28.27 161.486 28.3 160.646 28.3ZM160.646 25.57C161.466 25.57 162.086 25.51 162.506 25.39C162.926 25.25 163.216 25.04 163.376 24.76C163.556 24.48 163.646 24.07 163.646 23.53V18.04C163.646 17.24 163.436 16.68 163.016 16.36C162.596 16.04 161.806 15.88 160.646 15.88C159.486 15.88 158.696 16.04 158.276 16.36C157.856 16.68 157.646 17.24 157.646 18.04V23.53C157.646 24.07 157.726 24.48 157.886 24.76C158.066 25.04 158.366 25.25 158.786 25.39C159.206 25.51 159.826 25.57 160.646 25.57ZM171.44 13.48H175.76V15.25C176.1 13.87 177.65 13.18 180.41 13.18C182.27 13.18 183.57 13.52 184.31 14.2C185.07 14.86 185.45 15.91 185.45 17.35V28H181.07V17.92C181.07 17.36 181.01 16.94 180.89 16.66C180.79 16.38 180.57 16.18 180.23 16.06C179.91 15.94 179.41 15.88 178.73 15.88C177.87 15.88 177.24 15.94 176.84 16.06C176.44 16.16 176.17 16.35 176.03 16.63C175.89 16.91 175.82 17.34 175.82 17.92V28H171.44V13.48ZM196.571 28.3C191.431 28.3 188.861 26.73 188.861 23.59V18.37C188.861 16.55 189.441 15.23 190.601 14.41C191.781 13.59 193.591 13.18 196.031 13.18C198.331 13.18 200.011 13.58 201.071 14.38C202.151 15.16 202.691 16.49 202.691 18.37V21.91H193.271V23.23C193.271 24.07 193.571 24.67 194.171 25.03C194.771 25.39 195.851 25.57 197.411 25.57C198.851 25.57 200.471 25.36 202.271 24.94V27.73C200.491 28.11 198.591 28.3 196.571 28.3ZM198.521 19.42V17.32C198.521 16.84 198.321 16.48 197.921 16.24C197.541 16 196.891 15.88 195.971 15.88C194.911 15.88 194.201 16 193.841 16.24C193.461 16.5 193.271 16.86 193.271 17.32V19.42H198.521ZM108.983 43.53H116.783C118.683 43.53 120.183 43.66 121.283 43.92C122.403 44.18 123.213 44.64 123.713 45.3C124.233 45.94 124.493 46.84 124.493 48V51.69C124.493 52.97 124.213 53.97 123.653 54.69C123.113 55.41 122.243 55.92 121.043 56.22C119.863 56.52 118.263 56.67 116.243 56.67H113.663V63H108.983V43.53ZM116.633 53.46C117.853 53.46 118.713 53.32 119.213 53.04C119.713 52.74 119.963 52.24 119.963 51.54V48.42C119.963 47.78 119.723 47.36 119.243 47.16C118.783 46.96 117.893 46.86 116.573 46.86H113.663V53.46H116.633ZM127.731 42H132.111V63H127.731V42ZM140.188 63.3C138.828 63.3 137.808 63.18 137.128 62.94C136.468 62.68 135.998 62.23 135.718 61.59C135.458 60.93 135.328 59.95 135.328 58.65C135.328 57.49 135.468 56.58 135.748 55.92C136.048 55.26 136.518 54.79 137.158 54.51C137.818 54.21 138.718 54.06 139.858 54.06H144.778V53.07C144.778 52.45 144.688 51.99 144.508 51.69C144.348 51.39 144.038 51.18 143.578 51.06C143.138 50.94 142.468 50.88 141.568 50.88C140.328 50.88 138.628 51 136.468 51.24V48.48C138.048 48.28 139.898 48.18 142.018 48.18C143.878 48.18 145.308 48.32 146.308 48.6C147.328 48.88 148.058 49.36 148.498 50.04C148.938 50.72 149.158 51.71 149.158 53.01V63H144.868V61.68C144.528 62.26 144.068 62.67 143.488 62.91C142.908 63.17 141.808 63.3 140.188 63.3ZM141.898 60.57C142.778 60.57 143.408 60.54 143.788 60.48C144.068 60.44 144.258 60.38 144.358 60.3C144.478 60.22 144.578 60.09 144.658 59.91C144.738 59.77 144.778 59.56 144.778 59.28V56.46H141.778C141.098 56.46 140.618 56.51 140.338 56.61C140.058 56.69 139.868 56.87 139.768 57.15C139.668 57.41 139.618 57.88 139.618 58.56C139.618 59.22 139.668 59.68 139.768 59.94C139.868 60.2 140.058 60.37 140.338 60.45C140.638 60.53 141.158 60.57 141.898 60.57ZM157.122 62.88L151.332 48.48H156.102L159.372 58.74L162.342 48.48H166.872L158.922 69.24H154.482L157.122 62.88Z" fill="#E8D18D"/>
</svg>
